ply
format ascii 1.0
element vertex 88
property float x
property float y
property float z
element face 80
property list uchar int vertex_index
end_header
2.6330564 5.7 -1.0906478
2.5954082 5.753999 -1.0750533
2.5646899 5.796 -1.0623294
2.5395136 5.8259997 -1.0519011
2.5184956 5.8440003 -1.0431951
2.5002491 5.8500004 -1.0356371
2.4833882 5.844 -1.0286531
2.4665272 5.8259997 -1.0216691
2.4482808 5.796 -1.0141112
2.4272623 5.7539997 -1.0054051
2.4020867 5.7 -0.99497694
1.0906477 5.7 -2.6330564
1.0750533 5.753999 -2.5954082
1.0623294 5.796 -2.5646899
1.051901 5.8259997 -2.5395136
1.043195 5.8440003 -2.5184956
1.0356371 5.8500004 -2.5002491
1.028653 5.844 -2.4833882
1.021669 5.8259997 -2.4665272
1.0141112 5.796 -2.4482808
1.0054051 5.7539997 -2.4272623
0.9949769 5.7 -2.4020867
-1.0906479 5.7 -2.6330564
-1.0750536 5.753999 -2.5954082
-1.0623296 5.796 -2.5646899
-1.0519012 5.8259997 -2.5395136
-1.0431952 5.8440003 -2.5184956
-1.0356374 5.8500004 -2.5002491
-1.0286533 5.844 -2.4833882
-1.0216693 5.8259997 -2.4665272
-1.0141114 5.796 -2.4482808
-1.0054053 5.7539997 -2.4272623
-0.9949771 5.7 -2.4020867
-2.6330564 5.7 -1.0906479
-2.5954082 5.753999 -1.0750535
-2.5646899 5.796 -1.0623295
-2.5395136 5.8259997 -1.0519011
-2.5184956 5.8440003 -1.0431952
-2.5002491 5.8500004 -1.0356373
-2.4833882 5.844 -1.0286531
-2.4665272 5.8259997 -1.0216693
-2.4482808 5.796 -1.0141113
-2.4272623 5.7539997 -1.0054052
-2.4020867 5.7 -0.994977
-2.6330564 5.7 1.0906477
-2.5954082 5.753999 1.0750533
-2.5646899 5.796 1.0623294
-2.5395136 5.8259997 1.051901
-2.5184956 5.8440003 1.043195
-2.5002491 5.8500004 1.0356371
-2.4833882 5.844 1.028653
-2.4665272 5.8259997 1.021669
-2.4482808 5.796 1.0141112
-2.4272623 5.7539997 1.0054051
-2.4020867 5.7 0.9949769
-1.0906469 5.7 2.633057
-1.0750524 5.753999 2.5954087
-1.0623286 5.796 2.5646904
-1.0519001 5.8259997 2.539514
-1.0431942 5.8440003 2.518496
-1.0356363 5.8500004 2.5002496
-1.0286522 5.844 2.4833887
-1.0216683 5.8259997 2.4665277
-1.0141103 5.796 2.4482813
-1.0054042 5.7539997 2.4272628
-0.9949761 5.7 2.402087
1.0906483 5.7 2.6330564
1.0750538 5.753999 2.595408
1.0623299 5.796 2.5646899
1.0519015 5.8259997 2.5395133
1.0431955 5.8440003 2.5184953
1.0356376 5.8500004 2.500249
1.0286535 5.844 2.483388
1.0216695 5.8259997 2.4665272
1.0141116 5.796 2.4482806
1.0054054 5.7539997 2.4272623
0.99497736 5.7 2.4020865
2.633057 5.7 1.0906465
2.595409 5.753999 1.075052
2.5646906 5.796 1.0623281
2.5395143 5.8259997 1.0518998
2.5184963 5.8440003 1.0431938
2.5002496 5.8500004 1.0356358
2.4833887 5.844 1.0286518
2.466528 5.8259997 1.0216678
2.4482813 5.796 1.01411
2.427263 5.7539997 1.0054039
2.4020872 5.7 0.9949757
4 11 12 1 0
4 12 13 2 1
4 13 14 3 2
4 14 15 4 3
4 15 16 5 4
4 16 17 6 5
4 17 18 7 6
4 18 19 8 7
4 19 20 9 8
4 20 21 10 9
4 22 23 12 11
4 23 24 13 12
4 24 25 14 13
4 25 26 15 14
4 26 27 16 15
4 27 28 17 16
4 28 29 18 17
4 29 30 19 18
4 30 31 20 19
4 31 32 21 20
4 33 34 23 22
4 34 35 24 23
4 35 36 25 24
4 36 37 26 25
4 37 38 27 26
4 38 39 28 27
4 39 40 29 28
4 40 41 30 29
4 41 42 31 30
4 42 43 32 31
4 44 45 34 33
4 45 46 35 34
4 46 47 36 35
4 47 48 37 36
4 48 49 38 37
4 49 50 39 38
4 50 51 40 39
4 51 52 41 40
4 52 53 42 41
4 53 54 43 42
4 55 56 45 44
4 56 57 46 45
4 57 58 47 46
4 58 59 48 47
4 59 60 49 48
4 60 61 50 49
4 61 62 51 50
4 62 63 52 51
4 63 64 53 52
4 64 65 54 53
4 66 67 56 55
4 67 68 57 56
4 68 69 58 57
4 69 70 59 58
4 70 71 60 59
4 71 72 61 60
4 72 73 62 61
4 73 74 63 62
4 74 75 64 63
4 75 76 65 64
4 77 78 67 66
4 78 79 68 67
4 79 80 69 68
4 80 81 70 69
4 81 82 71 70
4 82 83 72 71
4 83 84 73 72
4 84 85 74 73
4 85 86 75 74
4 86 87 76 75
4 0 1 78 77
4 1 2 79 78
4 2 3 80 79
4 3 4 81 80
4 4 5 82 81
4 5 6 83 82
4 6 7 84 83
4 7 8 85 84
4 8 9 86 85
4 9 10 87 86
