ply
format ascii 1.0
comment generated in Processing
element vertex 252
property float x
property float y
property float z
element face 240
property list uchar int vertex_index
end_header
-2.4148145	5.65	-0.64704764
-2.36845	5.74525	-0.63462424
-2.2409482	5.8240004	-0.6004603
-2.0496943	5.89075	-0.54921395
-1.8120769	5.950001	-0.48554453
-1.5454812	6.0062504	-0.41411045
-1.2672946	6.0639997	-0.33957055
-0.99490356	6.12775	-0.26658362
-0.74569476	6.202	-0.1998083
-0.5370547	6.2912498	-0.14390339
-0.19318517	6.8	-0.05176381
-0.31817597	6.9209995	-0.085255
-0.4512806	7.042001	-0.12092027
-0.5774305	7.16	-0.15472203
-0.6815573	7.2720003	-0.18262272
-0.7485925	7.375	-0.20058475
-0.7634677	7.4659996	-0.20457056
-0.7111146	7.542	-0.19054258
-0.5764645	7.6000004	-0.1544632
-0.34444922	7.637	-0.092294894
0.0	7.65	0.0
-1.767767	5.65	-1.767767
-1.7338257	5.74525	-1.7338257
-1.640488	5.8240004	-1.640488
-1.5004804	5.89075	-1.5004804
-1.3265324	5.950001	-1.3265324
-1.1313708	6.0062504	-1.1313708
-0.927724	6.0639997	-0.927724
-0.72831994	6.12775	-0.72831994
-0.54588646	6.202	-0.54588646
-0.39315137	6.2912498	-0.39315137
-0.14142136	6.8	-0.14142136
-0.23292097	6.9209995	-0.23292097
-0.33036032	7.042001	-0.33036032
-0.42270845	7.16	-0.42270845
-0.49893457	7.2720003	-0.49893457
-0.5480077	7.375	-0.5480077
-0.5588972	7.4659996	-0.5588972
-0.520572	7.542	-0.520572
-0.4220013	7.6000004	-0.4220013
-0.25215432	7.637	-0.25215432
0.0	7.65	0.0
-0.6470477	5.65	-2.4148145
-0.63462436	5.74525	-2.36845
-0.60046035	5.8240004	-2.2409482
-0.549214	5.89075	-2.0496943
-0.4855446	5.950001	-1.8120769
-0.41411048	6.0062504	-1.5454812
-0.3395706	6.0639997	-1.2672946
-0.26658365	6.12775	-0.99490356
-0.19980833	6.202	-0.74569476
-0.1439034	6.2912498	-0.5370547
-0.051763814	6.8	-0.19318517
-0.085255004	6.9209995	-0.31817597
-0.12092028	7.042001	-0.4512806
-0.15472205	7.16	-0.5774305
-0.18262275	7.2720003	-0.6815573
-0.20058477	7.375	-0.7485925
-0.20457059	7.4659996	-0.7634677
-0.1905426	7.542	-0.7111146
-0.15446322	7.6000004	-0.5764645
-0.0922949	7.637	-0.34444922
0.0	7.65	0.0
0.6470479	5.65	-2.4148145
0.63462454	5.74525	-2.36845
0.6004606	5.8240004	-2.2409482
0.5492142	5.89075	-2.0496943
0.48554477	5.950001	-1.8120769
0.41411063	6.0062504	-1.5454812
0.33957073	6.0639997	-1.2672946
0.26658374	6.12775	-0.99490356
0.1998084	6.202	-0.74569476
0.14390345	6.2912498	-0.5370547
0.051763833	6.8	-0.19318517
0.085255034	6.9209995	-0.31817597
0.12092032	7.042001	-0.4512806
0.1547221	7.16	-0.5774305
0.1826228	7.2720003	-0.6815573
0.20058484	7.375	-0.7485925
0.20457065	7.4659996	-0.7634677
0.19054267	7.542	-0.7111146
0.15446326	7.6000004	-0.5764645
0.09229493	7.637	-0.34444922
-0.0	7.65	0.0
1.767767	5.65	-1.767767
1.7338257	5.74525	-1.7338257
1.640488	5.8240004	-1.640488
1.5004804	5.89075	-1.5004804
1.3265324	5.950001	-1.3265324
1.1313708	6.0062504	-1.1313708
0.927724	6.0639997	-0.927724
0.72831994	6.12775	-0.72831994
0.54588646	6.202	-0.54588646
0.39315137	6.2912498	-0.39315137
0.14142136	6.8	-0.14142136
0.23292097	6.9209995	-0.23292097
0.33036032	7.042001	-0.33036032
0.42270845	7.16	-0.42270845
0.49893457	7.2720003	-0.49893457
0.5480077	7.375	-0.5480077
0.5588972	7.4659996	-0.5588972
0.520572	7.542	-0.520572
0.4220013	7.6000004	-0.4220013
0.25215432	7.637	-0.25215432
-0.0	7.65	0.0
2.4148145	5.65	-0.6470478
2.36845	5.74525	-0.6346245
2.2409482	5.8240004	-0.60046047
2.0496943	5.89075	-0.5492141
1.8120769	5.950001	-0.4855447
1.5454812	6.0062504	-0.4141106
1.2672946	6.0639997	-0.33957067
0.99490356	6.12775	-0.2665837
0.74569476	6.202	-0.19980837
0.5370547	6.2912498	-0.14390343
0.19318517	6.8	-0.05176383
0.31817597	6.9209995	-0.08525503
0.4512806	7.042001	-0.12092031
0.5774305	7.16	-0.15472208
0.6815573	7.2720003	-0.18262279
0.7485925	7.375	-0.20058483
0.7634677	7.4659996	-0.20457064
0.7111146	7.542	-0.19054264
0.5764645	7.6000004	-0.15446325
0.34444922	7.637	-0.092294924
-0.0	7.65	0.0
2.4148145	5.65	0.6470477
2.36845	5.74525	0.63462436
2.2409482	5.8240004	0.60046035
2.0496943	5.89075	0.549214
1.8120769	5.950001	0.4855446
1.5454812	6.0062504	0.41411048
1.2672946	6.0639997	0.3395706
0.99490356	6.12775	0.26658365
0.74569476	6.202	0.19980833
0.5370547	6.2912498	0.1439034
0.19318517	6.8	0.051763814
0.31817597	6.9209995	0.085255004
0.4512806	7.042001	0.12092028
0.5774305	7.16	0.15472205
0.6815573	7.2720003	0.18262275
0.7485925	7.375	0.20058477
0.7634677	7.4659996	0.20457059
0.7111146	7.542	0.1905426
0.5764645	7.6000004	0.15446322
0.34444922	7.637	0.0922949
0.0	7.65	-0.0
1.7677666	5.65	1.7677672
1.7338254	5.74525	1.733826
1.6404877	5.8240004	1.6404883
1.5004802	5.89075	1.5004807
1.3265321	5.950001	1.3265326
1.1313705	6.0062504	1.1313709
0.9277239	6.0639997	0.9277242
0.7283198	6.12775	0.72832006
0.54588634	6.202	0.5458865
0.39315128	6.2912498	0.39315143
0.14142133	6.8	0.14142138
0.23292093	6.9209995	0.232921
0.33036026	7.042001	0.33036035
0.42270836	7.16	0.4227085
0.49893448	7.2720003	0.49893463
0.5480076	7.375	0.54800785
0.5588971	7.4659996	0.55889726
0.5205719	7.542	0.52057207
0.4220012	7.6000004	0.42200136
0.2521543	7.637	0.25215438
0.0	7.65	-0.0
0.64704746	5.65	2.4148147
0.6346241	5.74525	2.3684502
0.6004602	5.8240004	2.2409484
0.5492138	5.89075	2.0496945
0.4855444	5.950001	1.8120769
0.41411036	6.0062504	1.5454813
0.3395705	6.0639997	1.2672946
0.26658353	6.12775	0.9949036
0.19980825	6.202	0.7456948
0.14390336	6.2912498	0.5370548
0.0517638	6.8	0.19318518
0.085254975	6.9209995	0.31817597
0.12092024	7.042001	0.4512806
0.15472199	7.16	0.5774305
0.18262269	7.2720003	0.6815573
0.20058471	7.375	0.74859256
0.20457052	7.4659996	0.7634678
0.19054253	7.542	0.7111146
0.15446316	7.6000004	0.57646453
0.09229487	7.637	0.34444925
0.0	7.65	-0.0
-0.6470475	5.65	2.4148145
-0.6346242	5.74525	2.36845
-0.60046023	5.8240004	2.2409482
-0.5492139	5.89075	2.0496943
-0.48554447	5.950001	1.8120769
-0.4141104	6.0062504	1.5454812
-0.33957052	6.0639997	1.2672946
-0.2665836	6.12775	0.99490356
-0.19980828	6.202	0.74569476
-0.14390337	6.2912498	0.5370547
-0.051763803	6.8	0.19318517
-0.08525498	6.9209995	0.31817597
-0.120920256	7.042001	0.4512806
-0.154722	7.16	0.5774305
-0.1826227	7.2720003	0.6815573
-0.20058472	7.375	0.7485925
-0.20457055	7.4659996	0.7634677
-0.19054255	7.542	0.7111146
-0.15446319	7.6000004	0.5764645
-0.09229488	7.637	0.34444922
0.0	7.65	0.0
-1.7677666	5.65	1.7677672
-1.7338254	5.74525	1.733826
-1.6404877	5.8240004	1.6404883
-1.5004802	5.89075	1.5004807
-1.3265321	5.950001	1.3265326
-1.1313705	6.0062504	1.1313709
-0.9277239	6.0639997	0.9277242
-0.7283198	6.12775	0.72832006
-0.54588634	6.202	0.5458865
-0.39315128	6.2912498	0.39315143
-0.14142133	6.8	0.14142138
-0.23292093	6.9209995	0.232921
-0.33036026	7.042001	0.33036035
-0.42270836	7.16	0.4227085
-0.49893448	7.2720003	0.49893463
-0.5480076	7.375	0.54800785
-0.5588971	7.4659996	0.55889726
-0.5205719	7.542	0.52057207
-0.4220012	7.6000004	0.42200136
-0.2521543	7.637	0.25215438
0.0	7.65	0.0
-2.4148147	5.65	0.6470471
-2.3684502	5.74525	0.63462377
-2.2409484	5.8240004	0.6004598
-2.0496945	5.89075	0.5492135
-1.8120769	5.950001	0.48554415
-1.5454813	6.0062504	0.41411012
-1.2672946	6.0639997	0.33957028
-0.9949036	6.12775	0.26658338
-0.7456948	6.202	0.19980815
-0.5370548	6.2912498	0.14390327
-0.19318518	6.8	0.05176377
-0.31817597	6.9209995	0.08525492
-0.4512806	7.042001	0.120920174
-0.5774305	7.16	0.1547219
-0.6815573	7.2720003	0.18262258
-0.74859256	7.375	0.20058459
-0.7634678	7.4659996	0.2045704
-0.7111146	7.542	0.19054241
-0.57646453	7.6000004	0.15446307
-0.34444925	7.637	0.09229482
0.0	7.65	0.0
4 0	1	22	21
4 1	2	23	22
4 2	3	24	23
4 3	4	25	24
4 4	5	26	25
4 5	6	27	26
4 6	7	28	27
4 7	8	29	28
4 8	9	30	29
4 9	10	31	30
4 10	11	32	31
4 11	12	33	32
4 12	13	34	33
4 13	14	35	34
4 14	15	36	35
4 15	16	37	36
4 16	17	38	37
4 17	18	39	38
4 18	19	40	39
4 19	20	41	40
4 21	22	43	42
4 22	23	44	43
4 23	24	45	44
4 24	25	46	45
4 25	26	47	46
4 26	27	48	47
4 27	28	49	48
4 28	29	50	49
4 29	30	51	50
4 30	31	52	51
4 31	32	53	52
4 32	33	54	53
4 33	34	55	54
4 34	35	56	55
4 35	36	57	56
4 36	37	58	57
4 37	38	59	58
4 38	39	60	59
4 39	40	61	60
4 40	41	62	61
4 42	43	64	63
4 43	44	65	64
4 44	45	66	65
4 45	46	67	66
4 46	47	68	67
4 47	48	69	68
4 48	49	70	69
4 49	50	71	70
4 50	51	72	71
4 51	52	73	72
4 52	53	74	73
4 53	54	75	74
4 54	55	76	75
4 55	56	77	76
4 56	57	78	77
4 57	58	79	78
4 58	59	80	79
4 59	60	81	80
4 60	61	82	81
4 61	62	83	82
4 63	64	85	84
4 64	65	86	85
4 65	66	87	86
4 66	67	88	87
4 67	68	89	88
4 68	69	90	89
4 69	70	91	90
4 70	71	92	91
4 71	72	93	92
4 72	73	94	93
4 73	74	95	94
4 74	75	96	95
4 75	76	97	96
4 76	77	98	97
4 77	78	99	98
4 78	79	100	99
4 79	80	101	100
4 80	81	102	101
4 81	82	103	102
4 82	83	104	103
4 84	85	106	105
4 85	86	107	106
4 86	87	108	107
4 87	88	109	108
4 88	89	110	109
4 89	90	111	110
4 90	91	112	111
4 91	92	113	112
4 92	93	114	113
4 93	94	115	114
4 94	95	116	115
4 95	96	117	116
4 96	97	118	117
4 97	98	119	118
4 98	99	120	119
4 99	100	121	120
4 100	101	122	121
4 101	102	123	122
4 102	103	124	123
4 103	104	125	124
4 105	106	127	126
4 106	107	128	127
4 107	108	129	128
4 108	109	130	129
4 109	110	131	130
4 110	111	132	131
4 111	112	133	132
4 112	113	134	133
4 113	114	135	134
4 114	115	136	135
4 115	116	137	136
4 116	117	138	137
4 117	118	139	138
4 118	119	140	139
4 119	120	141	140
4 120	121	142	141
4 121	122	143	142
4 122	123	144	143
4 123	124	145	144
4 124	125	146	145
4 126	127	148	147
4 127	128	149	148
4 128	129	150	149
4 129	130	151	150
4 130	131	152	151
4 131	132	153	152
4 132	133	154	153
4 133	134	155	154
4 134	135	156	155
4 135	136	157	156
4 136	137	158	157
4 137	138	159	158
4 138	139	160	159
4 139	140	161	160
4 140	141	162	161
4 141	142	163	162
4 142	143	164	163
4 143	144	165	164
4 144	145	166	165
4 145	146	167	166
4 147	148	169	168
4 148	149	170	169
4 149	150	171	170
4 150	151	172	171
4 151	152	173	172
4 152	153	174	173
4 153	154	175	174
4 154	155	176	175
4 155	156	177	176
4 156	157	178	177
4 157	158	179	178
4 158	159	180	179
4 159	160	181	180
4 160	161	182	181
4 161	162	183	182
4 162	163	184	183
4 163	164	185	184
4 164	165	186	185
4 165	166	187	186
4 166	167	188	187
4 168	169	190	189
4 169	170	191	190
4 170	171	192	191
4 171	172	193	192
4 172	173	194	193
4 173	174	195	194
4 174	175	196	195
4 175	176	197	196
4 176	177	198	197
4 177	178	199	198
4 178	179	200	199
4 179	180	201	200
4 180	181	202	201
4 181	182	203	202
4 182	183	204	203
4 183	184	205	204
4 184	185	206	205
4 185	186	207	206
4 186	187	208	207
4 187	188	209	208
4 189	190	211	210
4 190	191	212	211
4 191	192	213	212
4 192	193	214	213
4 193	194	215	214
4 194	195	216	215
4 195	196	217	216
4 196	197	218	217
4 197	198	219	218
4 198	199	220	219
4 199	200	221	220
4 200	201	222	221
4 201	202	223	222
4 202	203	224	223
4 203	204	225	224
4 204	205	226	225
4 205	206	227	226
4 206	207	228	227
4 207	208	229	228
4 208	209	230	229
4 210	211	232	231
4 211	212	233	232
4 212	213	234	233
4 213	214	235	234
4 214	215	236	235
4 215	216	237	236
4 216	217	238	237
4 217	218	239	238
4 218	219	240	239
4 219	220	241	240
4 220	221	242	241
4 221	222	243	242
4 222	223	244	243
4 223	224	245	244
4 224	225	246	245
4 225	226	247	246
4 226	227	248	247
4 227	228	249	248
4 228	229	250	249
4 229	230	251	250
4 231	232	1	0
4 232	233	2	1
4 233	234	3	2
4 234	235	4	3
4 235	236	5	4
4 236	237	6	5
4 237	238	7	6
4 238	239	8	7
4 239	240	9	8
4 240	241	10	9
4 241	242	11	10
4 242	243	12	11
4 243	244	13	12
4 244	245	14	13
4 245	246	15	14
4 246	247	16	15
4 247	248	17	16
4 248	249	18	17
4 249	250	19	18
4 250	251	20	19
