ply
format ascii 1.0
element vertex 44
property float x
property float y
property float z
element face 40
property list uchar int vertex_index
end_header
3.25	1.2	1.5
3.8878496	1.4150499	1.4719999
4.3568	1.7444001	1.396
4.69495	2.16435	1.2839999
4.9404	2.6512	1.148
5.1312494	3.1812499	1.0
5.3055997	3.7308	0.852
5.5015497	4.27615	0.71599996
5.7572002	4.7936	0.604
6.1106496	5.25945	0.528
6.6	5.65	0.5
3.25	3.25	1.5
3.70585	3.2983	1.4719999
4.0648003	3.4324002	1.396
4.34395	3.6360998	1.2839999
4.5604005	3.8932002	1.148
4.73125	4.1875	1.0
4.8736	4.5028	0.852
5.00455	4.8229	0.71599996
5.1412	5.1316004	0.604
5.3006496	5.4127	0.528
5.5	5.65	0.5
3.25	1.2	-1.5
3.8878496	1.4150499	-1.4719999
4.3568	1.7444001	-1.396
4.69495	2.16435	-1.2839999
4.9404	2.6512	-1.148
5.1312494	3.1812499	-1.0
5.3055997	3.7308	-0.852
5.5015497	4.27615	-0.71599996
5.7572002	4.7936	-0.604
6.1106496	5.25945	-0.528
6.6	5.65	-0.5
3.25	3.25	-1.5
3.70585	3.2983	-1.4719999
4.0648003	3.4324002	-1.396
4.34395	3.6360998	-1.2839999
4.5604005	3.8932002	-1.148
4.73125	4.1875	-1.0
4.8736	4.5028	-0.852
5.00455	4.8229	-0.71599996
5.1412	5.1316004	-0.604
5.3006496	5.4127	-0.528
5.5	5.65	-0.5
4 0 1 12 11
4 1 2 13 12
4 2 3 14 13
4 3 4 15 14
4 4 5 16 15
4 5 6 17 16
4 6 7 18 17
4 7 8 19 18
4 8 9 20 19
4 9 10 21 20
4 33 34 23 22
4 34 35 24 23
4 35 36 25 24
4 36 37 26 25
4 37 38 27 26
4 38 39 28 27
4 39 40 29 28
4 40 41 30 29
4 41 42 31 30
4 42 43 32 31
4 33 11 12 34
4 34 12 13 35
4 35 13 14 36
4 36 14 15 37
4 37 15 16 38
4 38 16 17 39
4 39 17 18 40
4 40 18 19 41
4 41 19 20 42
4 42 20 21 43
4 22 23 1 0
4 23 24 2 1
4 24 25 3 2
4 25 26 4 3
4 26 27 5 4
4 27 28 6 5
4 28 29 7 6
4 29 30 8 7
4 30 31 9 8
4 31 32 10 9
