ply
format ascii 1.0
element vertex 168
property float x
property float y
property float z
element face 160
property list uchar int vertex_index
end_header
2.5406687 0.0 -1.0523795
2.5651975 0.0964 -1.0625397
2.6315787 0.20720004 -1.0900357
2.7290015 0.3348 -1.1303896
2.8466578 0.48160002 -1.1791244
2.9737372 0.65000004 -1.2317624
3.0994313 0.8424 -1.2838266
3.2129295 1.0611999 -1.330839
3.3034236 1.3088 -1.368323
3.3601036 1.5875998 -1.3918006
3.3721602 1.9 -1.3967947
3.361443 2.2628996 -1.3923554
3.3307707 2.6312 -1.3796505
3.2823591 3.0042996 -1.3595978
3.218427 3.3816001 -1.3331162
3.1411903 3.7624998 -1.3011237
3.0528674 4.1464 -1.2645392
2.9556754 4.5327 -1.224281
2.8518314 4.9208 -1.1812674
2.7435522 5.3100996 -1.1364167
2.6330564 5.7 -1.0906478
1.0523794 0.0 -2.5406687
1.0625396 0.0964 -2.5651975
1.0900356 0.20720004 -2.6315787
1.1303895 0.3348 -2.7290015
1.1791242 0.48160002 -2.8466578
1.2317623 0.65000004 -2.9737372
1.2838265 0.8424 -3.0994313
1.330839 1.0611999 -3.2129295
1.368323 1.3088 -3.3034236
1.3918005 1.5875998 -3.3601036
1.3967946 1.9 -3.3721602
1.3923553 2.2628996 -3.361443
1.3796504 2.6312 -3.3307707
1.3595977 3.0042996 -3.2823591
1.3331162 3.3816001 -3.218427
1.3011237 3.7624998 -3.1411903
1.2645391 4.1464 -3.0528674
1.2242808 4.5327 -2.9556754
1.1812673 4.9208 -2.8518314
1.1364166 5.3100996 -2.7435522
1.0906477 5.7 -2.6330564
-1.0523796 0.0 -2.5406687
-1.0625398 0.0964 -2.5651975
-1.0900359 0.20720004 -2.6315787
-1.1303897 0.3348 -2.7290015
-1.1791245 0.48160002 -2.8466578
-1.2317625 0.65000004 -2.9737372
-1.2838267 0.8424 -3.0994313
-1.3308393 1.0611999 -3.2129295
-1.3683232 1.3088 -3.3034236
-1.3918008 1.5875998 -3.3601036
-1.3967949 1.9 -3.3721602
-1.3923557 2.2628996 -3.361443
-1.3796507 2.6312 -3.3307707
-1.3595979 3.0042996 -3.2823591
-1.3331164 3.3816001 -3.218427
-1.301124 3.7624998 -3.1411903
-1.2645394 4.1464 -3.0528674
-1.2242812 4.5327 -2.9556754
-1.1812675 4.9208 -2.8518314
-1.1364169 5.3100996 -2.7435522
-1.0906479 5.7 -2.6330564
-2.5406687 0.0 -1.0523796
-2.5651975 0.0964 -1.0625398
-2.6315787 0.20720004 -1.0900358
-2.7290015 0.3348 -1.1303896
-2.8466578 0.48160002 -1.1791244
-2.9737372 0.65000004 -1.2317625
-3.0994313 0.8424 -1.2838266
-3.2129295 1.0611999 -1.3308392
-3.3034236 1.3088 -1.3683231
-3.3601036 1.5875998 -1.3918008
-3.3721602 1.9 -1.3967948
-3.361443 2.2628996 -1.3923556
-3.3307707 2.6312 -1.3796506
-3.2823591 3.0042996 -1.3595979
-3.218427 3.3816001 -1.3331163
-3.1411903 3.7624998 -1.3011239
-3.0528674 4.1464 -1.2645392
-2.9556754 4.5327 -1.2242811
-2.8518314 4.9208 -1.1812674
-2.7435522 5.3100996 -1.1364168
-2.6330564 5.7 -1.0906479
-2.5406687 0.0 1.0523794
-2.5651975 0.0964 1.0625396
-2.6315787 0.20720004 1.0900356
-2.7290015 0.3348 1.1303895
-2.8466578 0.48160002 1.1791242
-2.9737372 0.65000004 1.2317623
-3.0994313 0.8424 1.2838265
-3.2129295 1.0611999 1.330839
-3.3034236 1.3088 1.368323
-3.3601036 1.5875998 1.3918005
-3.3721602 1.9 1.3967946
-3.361443 2.2628996 1.3923553
-3.3307707 2.6312 1.3796504
-3.2823591 3.0042996 1.3595977
-3.218427 3.3816001 1.3331162
-3.1411903 3.7624998 1.3011237
-3.0528674 4.1464 1.2645391
-2.9556754 4.5327 1.2242808
-2.8518314 4.9208 1.1812673
-2.7435522 5.3100996 1.1364166
-2.6330564 5.7 1.0906477
-1.0523787 0.0 2.5406692
-1.0625387 0.0964 2.565198
-1.0900347 0.20720004 2.6315792
-1.1303886 0.3348 2.729002
-1.1791233 0.48160002 2.8466582
-1.2317613 0.65000004 2.9737377
-1.2838254 0.8424 3.0994318
-1.330838 1.0611999 3.2129302
-1.3683219 1.3088 3.3034244
-1.3917994 1.5875998 3.3601043
-1.3967935 1.9 3.372161
-1.3923542 2.2628996 3.3614438
-1.3796493 2.6312 3.3307712
-1.3595966 3.0042996 3.2823596
-1.3331151 3.3816001 3.2184277
-1.3011227 3.7624998 3.141191
-1.2645382 4.1464 3.052868
-1.2242799 4.5327 2.955676
-1.1812663 4.9208 2.851832
-1.1364157 5.3100996 2.743553
-1.0906469 5.7 2.633057
1.05238 0.0 2.5406685
1.06254 0.0964 2.5651972
1.0900362 0.20720004 2.6315784
1.1303899 0.3348 2.7290013
1.1791247 0.48160002 2.8466575
1.2317629 0.65000004 2.973737
1.2838271 0.8424 3.099431
1.3308396 1.0611999 3.2129292
1.3683236 1.3088 3.3034234
1.3918011 1.5875998 3.3601034
1.3967952 1.9 3.37216
1.3923559 2.2628996 3.3614428
1.3796511 2.6312 3.3307705
1.3595983 3.0042996 3.282359
1.3331168 3.3816001 3.2184267
1.3011243 3.7624998 3.1411903
1.2645397 4.1464 3.0528672
1.2242814 4.5327 2.9556754
1.1812677 4.9208 2.8518312
1.1364172 5.3100996 2.7435522
1.0906483 5.7 2.6330564
2.5406692 0.0 1.0523782
2.5651982 0.0964 1.0625384
2.6315794 0.20720004 1.0900344
2.7290022 0.3348 1.1303881
2.8466585 0.48160002 1.1791228
2.973738 0.65000004 1.2317609
3.099432 0.8424 1.2838249
3.2129302 1.0611999 1.3308375
3.3034246 1.3088 1.3683213
3.3601046 1.5875998 1.3917989
3.3721611 1.9 1.3967929
3.361444 2.2628996 1.3923537
3.3307714 2.6312 1.3796488
3.2823598 3.0042996 1.359596
3.218428 3.3816001 1.3331146
3.1411912 3.7624998 1.3011222
3.0528681 4.1464 1.2645376
2.9556763 4.5327 1.2242794
2.8518322 4.9208 1.1812658
2.743553 5.3100996 1.1364152
2.633057 5.7 1.0906465
4 21 22 1 0
4 22 23 2 1
4 23 24 3 2
4 24 25 4 3
4 25 26 5 4
4 26 27 6 5
4 27 28 7 6
4 28 29 8 7
4 29 30 9 8
4 30 31 10 9
4 31 32 11 10
4 32 33 12 11
4 33 34 13 12
4 34 35 14 13
4 35 36 15 14
4 36 37 16 15
4 37 38 17 16
4 38 39 18 17
4 39 40 19 18
4 40 41 20 19
4 42 43 22 21
4 43 44 23 22
4 44 45 24 23
4 45 46 25 24
4 46 47 26 25
4 47 48 27 26
4 48 49 28 27
4 49 50 29 28
4 50 51 30 29
4 51 52 31 30
4 52 53 32 31
4 53 54 33 32
4 54 55 34 33
4 55 56 35 34
4 56 57 36 35
4 57 58 37 36
4 58 59 38 37
4 59 60 39 38
4 60 61 40 39
4 61 62 41 40
4 63 64 43 42
4 64 65 44 43
4 65 66 45 44
4 66 67 46 45
4 67 68 47 46
4 68 69 48 47
4 69 70 49 48
4 70 71 50 49
4 71 72 51 50
4 72 73 52 51
4 73 74 53 52
4 74 75 54 53
4 75 76 55 54
4 76 77 56 55
4 77 78 57 56
4 78 79 58 57
4 79 80 59 58
4 80 81 60 59
4 81 82 61 60
4 82 83 62 61
4 84 85 64 63
4 85 86 65 64
4 86 87 66 65
4 87 88 67 66
4 88 89 68 67
4 89 90 69 68
4 90 91 70 69
4 91 92 71 70
4 92 93 72 71
4 93 94 73 72
4 94 95 74 73
4 95 96 75 74
4 96 97 76 75
4 97 98 77 76
4 98 99 78 77
4 99 100 79 78
4 100 101 80 79
4 101 102 81 80
4 102 103 82 81
4 103 104 83 82
4 105 106 85 84
4 106 107 86 85
4 107 108 87 86
4 108 109 88 87
4 109 110 89 88
4 110 111 90 89
4 111 112 91 90
4 112 113 92 91
4 113 114 93 92
4 114 115 94 93
4 115 116 95 94
4 116 117 96 95
4 117 118 97 96
4 118 119 98 97
4 119 120 99 98
4 120 121 100 99
4 121 122 101 100
4 122 123 102 101
4 123 124 103 102
4 124 125 104 103
4 126 127 106 105
4 127 128 107 106
4 128 129 108 107
4 129 130 109 108
4 130 131 110 109
4 131 132 111 110
4 132 133 112 111
4 133 134 113 112
4 134 135 114 113
4 135 136 115 114
4 136 137 116 115
4 137 138 117 116
4 138 139 118 117
4 139 140 119 118
4 140 141 120 119
4 141 142 121 120
4 142 143 122 121
4 143 144 123 122
4 144 145 124 123
4 145 146 125 124
4 147 148 127 126
4 148 149 128 127
4 149 150 129 128
4 150 151 130 129
4 151 152 131 130
4 152 153 132 131
4 153 154 133 132
4 154 155 134 133
4 155 156 135 134
4 156 157 136 135
4 157 158 137 136
4 158 159 138 137
4 159 160 139 138
4 160 161 140 139
4 161 162 141 140
4 162 163 142 141
4 163 164 143 142
4 164 165 144 143
4 165 166 145 144
4 166 167 146 145
4 0 1 148 147
4 1 2 149 148
4 2 3 150 149
4 3 4 151 150
4 4 5 152 151
4 5 6 153 152
4 6 7 154 153
4 7 8 155 154
4 8 9 156 155
4 9 10 157 156
4 10 11 158 157
4 11 12 159 158
4 12 13 160 159
4 13 14 161 160
4 14 15 162 161
4 15 16 163 162
4 16 17 164 163
4 17 18 165 164
4 18 19 166 165
4 19 20 167 166
