ply
format ascii 1.0
element vertex 84
property float x
property float y
property float z
element face 82
property list uchar int vertex_index
end_header
-2.75	5.3	0.5
-3.3064497	5.2988997	0.49999994
-3.8056	5.2912	0.5
-4.24715	5.2703	0.5
-4.6308002	5.2296	0.5
-4.9562497	5.1625004	0.5
-5.2232	5.0624	0.49999997
-5.4313498	4.9227	0.5
-5.5803995	4.7368	0.5
-5.6700497	4.4981	0.5
-5.7	4.2	0.5
-5.6785994	3.8701994	0.49999994
-5.6128	3.5416	0.5
-5.5002	3.2153997	0.5
-5.3384004	2.8928	0.5
-5.125	2.575	0.5
-4.8576	2.2632	0.49999997
-4.5338	1.9586	0.5
-4.1512003	1.6624	0.5
-3.7073998	1.3758	0.5
-3.2	1.1	0.5
-2.85	4.7	0.5
-3.2653496	4.6994996	0.49999994
-3.6408002	4.6959996	0.5
-3.97545	4.6864996	0.5
-4.2684	4.6679997	0.5
-4.5187497	4.6375	0.5
-4.7256	4.5919995	0.49999997
-4.88805	4.5284996	0.5
-5.0052004	4.444	0.5
-5.07615	4.3355	0.5
-5.1	4.2	0.5
-5.0874996	4.0059996	0.49999994
-5.0480003	3.7879999	0.5
-4.9785	3.5519998	0.5
-4.876	3.304	0.5
-4.7375	3.05	0.5
-4.56	2.7959995	0.49999997
-4.3405	2.5479999	0.5
-4.076	2.312	0.5
-3.7635002	2.0939999	0.5
-3.4	1.9	0.5
-2.75	5.3	-0.5
-3.3064497	5.2988997	-0.49999994
-3.8056	5.2912	-0.5
-4.24715	5.2703	-0.5
-4.6308002	5.2296	-0.5
-4.9562497	5.1625004	-0.5
-5.2232	5.0624	-0.49999997
-5.4313498	4.9227	-0.5
-5.5803995	4.7368	-0.5
-5.6700497	4.4981	-0.5
-5.7	4.2	-0.5
-5.6799493	3.8715496	-0.49999994
-5.6176	3.5464	-0.5
-5.5096498	3.2248497	-0.5
-5.3528004	2.9072	-0.5
-5.14375	2.5937498	-0.5
-4.8792	2.2847998	-0.49999997
-4.55585	1.98065	-0.5
-4.1704	1.6816001	-0.5
-3.7195501	1.38795	-0.5
-3.2	1.1	-0.5
-2.85	4.7	-0.5
-3.2653496	4.6994996	-0.49999994
-3.6408002	4.6959996	-0.5
-3.97545	4.6864996	-0.5
-4.2684	4.6679997	-0.5
-4.5187497	4.6375	-0.5
-4.7256	4.5919995	-0.49999997
-4.88805	4.5284996	-0.5
-5.0052004	4.444	-0.5
-5.07615	4.3355	-0.5
-5.1	4.2	-0.5
-5.0874996	4.0059996	-0.49999994
-5.0480003	3.7879999	-0.5
-4.9785	3.5519998	-0.5
-4.876	3.304	-0.5
-4.7375	3.05	-0.5
-4.56	2.7959995	-0.49999997
-4.3405	2.5479999	-0.5
-4.076	2.312	-0.5
-3.7635002	2.0939999	-0.5
-3.4	1.9	-0.5
4 0 1 22 21
4 1 2 23 22
4 2 3 24 23
4 3 4 25 24
4 4 5 26 25
4 5 6 27 26
4 6 7 28 27
4 7 8 29 28
4 8 9 30 29
4 9 10 31 30
4 10 11 32 31
4 11 12 33 32
4 12 13 34 33
4 13 14 35 34
4 14 15 36 35
4 15 16 37 36
4 16 17 38 37
4 17 18 39 38
4 18 19 40 39
4 19 20 41 40
4 63 64 43 42
4 64 65 44 43
4 65 66 45 44
4 66 67 46 45
4 67 68 47 46
4 68 69 48 47
4 69 70 49 48
4 70 71 50 49
4 71 72 51 50
4 72 73 52 51
4 73 74 53 52
4 74 75 54 53
4 75 76 55 54
4 76 77 56 55
4 77 78 57 56
4 78 79 58 57
4 79 80 59 58
4 80 81 60 59
4 81 82 61 60
4 82 83 62 61
4 42 43 1 0
4 43 44 2 1
4 44 45 3 2
4 45 46 4 3
4 46 47 5 4
4 47 48 6 5
4 48 49 7 6
4 49 50 8 7
4 50 51 9 8
4 51 52 10 9
4 52 53 11 10
4 53 54 12 11
4 54 55 13 12
4 55 56 14 13
4 56 57 15 14
4 57 58 16 15
4 58 59 17 16
4 59 60 18 17
4 60 61 19 18
4 61 62 20 19
4 21 22 64 63
4 22 23 65 64
4 23 24 66 65
4 24 25 67 66
4 25 26 68 67
4 26 27 69 68
4 27 28 70 69
4 28 29 71 70
4 29 30 72 71
4 30 31 73 72
4 31 32 74 73
4 32 33 75 74
4 33 34 76 75
4 34 35 77 76
4 35 36 78 77
4 36 37 79 78
4 37 38 80 79
4 38 39 81 80
4 39 40 82 81
4 40 41 83 82
4 0 21 63 42
4 20 83 62 41
